<svg xmlns="http://www.w3.org/2000/svg" viewBox="0 0 64 64"><rect x="7" y="4" width="50" height="56" rx="7" fill="#221C33" stroke="#FC84FC" stroke-width="3"/><rect x="28.4" y="19.2" width="2.4" height="2.4" fill="#FCE40C"/><rect x="33.2" y="19.2" width="2.4" height="2.4" fill="#FCE40C"/><rect x="26.0" y="21.6" width="2.4" height="2.4" fill="#FCE40C"/><rect x="28.4" y="21.6" width="2.4" height="2.4" fill="#FCE40C"/><rect x="33.2" y="21.6" width="2.4" height="2.4" fill="#FCE40C"/><rect x="35.6" y="21.6" width="2.4" height="2.4" fill="#FCE40C"/><rect x="28.4" y="24.0" width="2.4" height="2.4" fill="#FCE40C"/><rect x="33.2" y="24.0" width="2.4" height="2.4" fill="#FCE40C"/><rect x="23.6" y="26.4" width="2.4" height="2.4" fill="#F7F1E3"/><rect x="26.0" y="26.4" width="2.4" height="2.4" fill="#F7F1E3"/><rect x="28.4" y="26.4" width="2.4" height="2.4" fill="#F7F1E3"/><rect x="30.8" y="26.4" width="2.4" height="2.4" fill="#F7F1E3"/><rect x="33.2" y="26.4" width="2.4" height="2.4" fill="#F7F1E3"/><rect x="35.6" y="26.4" width="2.4" height="2.4" fill="#F7F1E3"/><rect x="38.0" y="26.4" width="2.4" height="2.4" fill="#F7F1E3"/><rect x="23.6" y="28.8" width="2.4" height="2.4" fill="#F7F1E3"/><rect x="26.0" y="28.8" width="2.4" height="2.4" fill="#171521"/><rect x="28.4" y="28.8" width="2.4" height="2.4" fill="#F7F1E3"/><rect x="30.8" y="28.8" width="2.4" height="2.4" fill="#F7F1E3"/><rect x="33.2" y="28.8" width="2.4" height="2.4" fill="#F7F1E3"/><rect x="35.6" y="28.8" width="2.4" height="2.4" fill="#171521"/><rect x="38.0" y="28.8" width="2.4" height="2.4" fill="#F7F1E3"/><rect x="23.6" y="31.2" width="2.4" height="2.4" fill="#F7F1E3"/><rect x="26.0" y="31.2" width="2.4" height="2.4" fill="#F7F1E3"/><rect x="28.4" y="31.2" width="2.4" height="2.4" fill="#F7F1E3"/><rect x="30.8" y="31.2" width="2.4" height="2.4" fill="#F7F1E3"/><rect x="33.2" y="31.2" width="2.4" height="2.4" fill="#F7F1E3"/><rect x="35.6" y="31.2" width="2.4" height="2.4" fill="#F7F1E3"/><rect x="38.0" y="31.2" width="2.4" height="2.4" fill="#F7F1E3"/><rect x="23.6" y="33.6" width="2.4" height="2.4" fill="#F7F1E3"/><rect x="26.0" y="33.6" width="2.4" height="2.4" fill="#F7F1E3"/><rect x="28.4" y="33.6" width="2.4" height="2.4" fill="#F7F1E3"/><rect x="30.8" y="33.6" width="2.4" height="2.4" fill="#171521"/><rect x="33.2" y="33.6" width="2.4" height="2.4" fill="#F7F1E3"/><rect x="35.6" y="33.6" width="2.4" height="2.4" fill="#F7F1E3"/><rect x="38.0" y="33.6" width="2.4" height="2.4" fill="#F7F1E3"/><rect x="23.6" y="36.0" width="2.4" height="2.4" fill="#F7F1E3"/><rect x="26.0" y="36.0" width="2.4" height="2.4" fill="#E23C50"/><rect x="28.4" y="36.0" width="2.4" height="2.4" fill="#E23C50"/><rect x="30.8" y="36.0" width="2.4" height="2.4" fill="#E23C50"/><rect x="33.2" y="36.0" width="2.4" height="2.4" fill="#E23C50"/><rect x="35.6" y="36.0" width="2.4" height="2.4" fill="#E23C50"/><rect x="38.0" y="36.0" width="2.4" height="2.4" fill="#F7F1E3"/><rect x="23.6" y="38.4" width="2.4" height="2.4" fill="#F7F1E3"/><rect x="26.0" y="38.4" width="2.4" height="2.4" fill="#F7F1E3"/><rect x="28.4" y="38.4" width="2.4" height="2.4" fill="#F7F1E3"/><rect x="30.8" y="38.4" width="2.4" height="2.4" fill="#F7F1E3"/><rect x="33.2" y="38.4" width="2.4" height="2.4" fill="#F7F1E3"/><rect x="35.6" y="38.4" width="2.4" height="2.4" fill="#F7F1E3"/><rect x="38.0" y="38.4" width="2.4" height="2.4" fill="#F7F1E3"/></svg>